<?xml version="1.0" encoding="UTF-8"?>
<svg version="1.1" xmlns="http://www.w3.org/2000/svg" width="180" height="180">
<path d="M0 0 C59.4 0 118.8 0 180 0 C180 59.4 180 118.8 180 180 C120.6 180 61.2 180 0 180 C0 120.6 0 61.2 0 0 Z " fill="#1595CF" transform="translate(0,0)"/>
<path d="M0 0 C1.08530408 0.01079432 1.08530408 0.01079432 2.19253349 0.02180672 C2.96592505 0.02156565 3.7393166 0.02132458 4.53614426 0.0210762 C7.0452586 0.0225717 9.55407762 0.03781506 12.06313896 0.053545 C13.60993113 0.0564847 15.15672527 0.05852559 16.70351982 0.05964851 C22.445819 0.07014424 28.18807561 0.09806655 33.93032646 0.1238575 C46.75907646 0.1651075 59.58782646 0.2063575 72.80532646 0.2488575 C72.80532646 26.6488575 72.80532646 53.0488575 72.80532646 80.2488575 C61.91532646 80.2488575 51.02532646 80.2488575 39.80532646 80.2488575 C39.80532646 67.3788575 39.80532646 54.5088575 39.80532646 41.2488575 C33.53532646 41.2488575 27.26532646 41.2488575 20.80532646 41.2488575 C20.81692802 43.98038094 20.82852959 46.71190437 20.84048271 49.52620125 C20.84827289 52.16055879 20.85434987 54.79491507 20.8602581 57.42927742 C20.86529878 59.26554625 20.87213123 61.10181104 20.88076591 62.93806648 C20.89284318 65.57162151 20.89855727 68.20512366 20.90298271 70.83870125 C20.908144 71.66474358 20.91330528 72.4907859 20.91862297 73.34185982 C20.91881851 75.31122117 20.86736798 77.28047363 20.80532646 79.2488575 C19.80532646 80.2488575 19.80532646 80.2488575 17.67298698 80.36911201 C16.73366829 80.3668914 15.79434959 80.36467079 14.8265667 80.36238289 C13.76554237 80.36230736 12.70451805 80.36223183 11.61134148 80.36215401 C9.88011795 80.35441208 9.88011795 80.35441208 8.11392021 80.34651375 C6.35145706 80.34439133 6.35145706 80.34439133 4.5533886 80.34222603 C0.78317582 80.33660742 -2.98697857 80.32405176 -6.75717354 80.3113575 C-9.30600081 80.3063449 -11.85482901 80.30178158 -14.40365791 80.29768562 C-20.66734986 80.28663194 -26.93100753 80.26987571 -33.19467354 80.2488575 C-33.37262665 73.39907499 -33.49494058 66.54989142 -33.57919502 59.69832039 C-33.6143284 57.36931775 -33.66204668 55.04046875 -33.72274971 52.71199226 C-33.80797798 49.35800935 -33.8474343 46.00607198 -33.87826729 42.65120125 C-33.91439629 41.61551506 -33.95052528 40.57982887 -33.9877491 39.51275826 C-33.99158999 32.38996027 -33.99158999 32.38996027 -31.70178413 29.1111927 C-29.94612894 27.35391622 -28.12044317 25.81434822 -26.19467354 24.2488575 C-25.10987689 23.08169053 -24.04438447 21.89600868 -23.00717354 20.6863575 C-22.44256416 20.03280281 -21.87795479 19.37924812 -21.29623604 18.70588875 C-20.60272041 17.89506844 -19.90920479 17.08424812 -19.19467354 16.2488575 C-17.63783831 14.42974652 -16.08084989 12.61076731 -14.52353096 10.79207039 C-13.44182493 9.52790792 -12.3612309 8.26279298 -11.28183174 6.99666023 C-5.32454924 0.02230416 -5.32454924 0.02230416 0 0 Z " fill="#F0F6FA" transform="translate(68.19467353820801,49.751142501831055)"/>
<path d="M0 0 C1.1325119 0.00444122 2.2650238 0.00888245 3.43185425 0.01345825 C4.71303131 0.01360931 5.99420837 0.01376038 7.31420898 0.01391602 C8.71784621 0.02413008 10.12148186 0.03456209 11.52511597 0.04519653 C12.95715132 0.04892612 14.38918922 0.05177335 15.82122803 0.05377197 C19.59259064 0.06141276 23.3637995 0.08106495 27.13510132 0.10317993 C30.98253296 0.12362884 34.82998941 0.13277164 38.67745972 0.14285278 C46.2283111 0.16431053 53.77903575 0.19845171 61.32980347 0.24050903 C59.15697765 4.15077235 57.06422353 7.83221635 54.20089722 11.28347778 C53.64079956 11.96474731 53.0807019 12.64601685 52.50363159 13.34793091 C51.93064331 14.03435669 51.35765503 14.72078247 50.76730347 15.42800903 C49.61956642 16.81683498 48.47241201 18.20614266 47.32589722 19.59597778 C46.82243774 20.20078979 46.31897827 20.80560181 45.80026245 21.42874146 C44.26086458 23.23561789 44.26086458 23.23561789 43.02999878 25.4302063 C41.32980347 27.24050903 41.32980347 27.24050903 38.51071167 27.78640747 C36.83754883 27.81782837 36.83754883 27.81782837 35.13058472 27.84988403 C34.04172974 27.88049927 32.95287476 27.9111145 31.83102417 27.94265747 C29.75760742 27.96634399 29.75760742 27.96634399 27.64230347 27.99050903 C23.24917847 28.07300903 18.85605347 28.15550903 14.32980347 28.24050903 C13.99980347 40.78050903 13.66980347 53.32050903 13.32980347 66.24050903 C-0.20019653 66.24050903 -13.73019653 66.24050903 -27.67019653 66.24050903 C-27.81457153 59.94988403 -27.95894653 53.65925903 -28.10769653 47.17800903 C-28.17142456 45.20566284 -28.23515259 43.23331665 -28.30081177 41.20120239 C-28.32127609 39.61928632 -28.33910892 38.03733309 -28.35379028 36.45535278 C-28.38960205 35.64908447 -28.42541382 34.84281616 -28.46231079 34.01211548 C-28.4675082 29.15254243 -27.72658686 26.78347831 -24.24612427 23.29470825 C-23.06506956 22.26399221 -21.87439825 21.24408464 -20.67019653 20.24050903 C-19.52663303 18.98635399 -18.39686634 17.71911941 -17.29519653 16.42800903 C-3.38036594 0.30447517 -3.38036594 0.30447517 0 0 Z " fill="#1695CE" transform="translate(68.67019653320313,56.759490966796875)"/>
<path d="M0 0 C0.33 0 0.66 0 1 0 C1 19.47 1 38.94 1 59 C-5.6 59 -12.2 59 -19 59 C-19.23185634 54.22891167 -19.42989011 49.47784111 -19.54931641 44.70556641 C-19.59913086 43.0893284 -19.6670185 41.47352978 -19.75439453 39.85888672 C-20.2189551 31.04316678 -20.38751625 24.13569698 -14.27734375 17.28125 C-12.54022183 15.49912812 -10.78339732 13.73581247 -9 12 C-7.9982215 10.75933586 -7.02044618 9.49803303 -6.08984375 8.203125 C-1.74602273 2.24318182 -1.74602273 2.24318182 0 0 Z " fill="#1895CE" transform="translate(133,64)"/>
</svg>
